# xmcd CD database file
#
# Track frame offsets:
#	150
#	47392
#	103600
#	127574
#	179286
#	238383
#	277695
#
# Disc length: 4373 seconds
#
# Revision: 0
# Processed by: cddbd v1.5.2PL0 Copyright (c) Steve Scherf et al.
# Submitted via: CDex 2.13
#
DISCID=4e111307
DTITLE=Vansina Orchestra - Morning forest - Nose up botom down
DYEAR=2014
DGENRE=Jazz
TTITLE0=Dark night
TTITLE1=Fiesta festivo
TTITLE2=Morning forest aka Nose up bottom down
TTITLE3=Ploink
TTITLE4=Groove along
TTITLE5=Symphony of the fried bananas
TTITLE6=Bike insprivation
EXTD=YEAR: 2014
EXTT0=
EXTT1=
EXTT2=
EXTT3=
EXTT4=
EXTT5=
EXTT6=
PLAYORDER=
